<?xml version="1.0" standalone="no"?>
<!DOCTYPE svg PUBLIC "-//W3C//DTD SVG 20010904//EN"
 "http://www.w3.org/TR/2001/REC-SVG-20010904/DTD/svg10.dtd">
<svg version="1.0" xmlns="http://www.w3.org/2000/svg"
 width="900.000000pt" height="800.000000pt" viewBox="0 0 900.000000 800.000000"
 preserveAspectRatio="xMidYMid meet">

<g transform="translate(0.000000,800.000000) scale(0.100000,-0.100000)"
fill="#000000" stroke="none">
<path d="M3812 6043 l3 -1398 820 0 820 0 3 148 3 147 -661 0 -660 0 0 1250 0
1250 -165 0 -165 0 2 -1397z"/>
<path d="M2920 4160 l0 -50 1580 0 1580 0 0 50 0 50 -1580 0 -1580 0 0 -50z"/>
<path d="M3262 2393 l3 -1398 150 0 150 0 0 980 c0 968 0 982 -22 1119 -24
147 -28 196 -15 196 4 0 40 -84 78 -188 69 -183 75 -194 284 -537 117 -193
270 -442 338 -555 69 -113 146 -240 171 -283 l46 -77 55 2 54 3 62 105 c34 58
196 339 361 626 279 485 305 534 374 709 75 189 106 240 95 154 -34 -269 -37
-386 -34 -1319 l3 -935 160 0 160 0 3 1398 2 1398 -132 -3 -132 -3 -263 -450
c-145 -247 -329 -562 -410 -700 -118 -199 -161 -283 -211 -410 -35 -88 -67
-164 -71 -168 -4 -4 -36 61 -71 145 -58 139 -102 216 -503 871 l-439 717 -124
0 -124 0 2 -1397z"/>
</g>
</svg>
